<mxfile host="65bd71144e">
    <diagram id="2zcV8UPQ3z7LGjHxKrTJ" name="Page-1">
        <mxGraphModel dx="1347" dy="963" grid="1" gridSize="10" guides="1" tooltips="1" connect="1" arrows="1" fold="1" page="1" pageScale="1" pageWidth="583" pageHeight="827" math="0" shadow="0">
            <root>
                <mxCell id="0"/>
                <mxCell id="1" parent="0"/>
                <mxCell id="2" value="Harbour&lt;br style=&quot;font-size: 8px;&quot;&gt;Infrastructure&lt;br style=&quot;font-size: 8px;&quot;&gt;Layer" style="rounded=0;whiteSpace=wrap;html=1;fontFamily=Courier New;fillColor=#f5f5f5;verticalAlign=top;strokeColor=#666666;fontColor=#333333;fontSize=8;labelPosition=center;verticalLabelPosition=middle;align=right;spacing=0;spacingRight=5;" parent="1" vertex="1">
                    <mxGeometry x="237" y="557" width="428" height="60" as="geometry"/>
                </mxCell>
                <mxCell id="3" value="actions/" style="rounded=0;whiteSpace=wrap;html=1;fontFamily=Courier New;verticalAlign=top;dashed=1;dashPattern=1 1;fillColor=#F2F2F2;opacity=50;" parent="1" vertex="1">
                    <mxGeometry x="427.5" y="300" width="185" height="183.75" as="geometry"/>
                </mxCell>
                <mxCell id="4" value="config/" style="rounded=0;whiteSpace=wrap;html=1;fontFamily=Courier New;verticalAlign=bottom;dashed=1;dashPattern=1 1;fillColor=#F2F2F2;opacity=50;" parent="1" vertex="1">
                    <mxGeometry x="258" y="371" width="135" height="74.5" as="geometry"/>
                </mxCell>
                <mxCell id="5" style="edgeStyle=none;rounded=0;html=1;exitX=0.5;exitY=0;exitDx=0;exitDy=0;entryX=0;entryY=0.5;entryDx=0;entryDy=0;startArrow=none;startFill=0;fillColor=#f0a30a;strokeColor=#BD7000;" parent="1" source="6" target="13" edge="1">
                    <mxGeometry relative="1" as="geometry">
                        <Array as="points">
                            <mxPoint x="325" y="360"/>
                        </Array>
                    </mxGeometry>
                </mxCell>
                <mxCell id="6" value="&lt;font face=&quot;Courier New&quot;&gt;config.toml&lt;br&gt;&lt;/font&gt;" style="rounded=0;whiteSpace=wrap;html=1;" parent="1" vertex="1">
                    <mxGeometry x="265" y="379" width="120" height="45" as="geometry"/>
                </mxCell>
                <mxCell id="7" value="apply-stage5.sh" style="rounded=1;whiteSpace=wrap;html=1;fontFamily=Courier New;strokeColor=#36393d;fillColor=#FFFFFF;" parent="1" vertex="1">
                    <mxGeometry x="440" y="410" width="160" height="60" as="geometry"/>
                </mxCell>
                <mxCell id="8" value="inventory/" style="rounded=0;whiteSpace=wrap;html=1;fontFamily=Courier New;verticalAlign=top;dashed=1;dashPattern=1 1;fillColor=#F2F2F2;opacity=50;" parent="1" vertex="1">
                    <mxGeometry x="669" y="300" width="180" height="256" as="geometry"/>
                </mxCell>
                <mxCell id="9" value="05_k8s_managed&lt;br&gt;_services/" style="rounded=0;whiteSpace=wrap;html=1;dashed=1;dashPattern=1 1;fontFamily=Courier New;verticalAlign=top;fillColor=#E3E3E3;opacity=75;spacing=0;" parent="1" vertex="1">
                    <mxGeometry x="678" y="385" width="160" height="90" as="geometry"/>
                </mxCell>
                <mxCell id="10" value=".etc/" style="rounded=0;whiteSpace=wrap;html=1;dashed=1;dashPattern=1 1;fontFamily=Courier New;verticalAlign=top;fillColor=#E3E3E3;opacity=75;" parent="1" vertex="1">
                    <mxGeometry x="678" y="482" width="160" height="65" as="geometry"/>
                </mxCell>
                <mxCell id="11" value="group&lt;br&gt;vars" style="rounded=0;whiteSpace=wrap;html=1;fontFamily=Courier New;verticalAlign=middle;dashed=1;dashPattern=1 1;" parent="1" vertex="1">
                    <mxGeometry x="708" y="421" width="100" height="45" as="geometry"/>
                </mxCell>
                <mxCell id="12" style="edgeStyle=none;rounded=0;html=1;exitX=0.999;exitY=0.467;exitDx=0;exitDy=0;entryX=0;entryY=0.429;entryDx=0;entryDy=0;fontFamily=Courier New;fillColor=#f0a30a;strokeColor=#BD7000;exitPerimeter=0;entryPerimeter=0;" parent="1" source="13" target="11" edge="1">
                    <mxGeometry relative="1" as="geometry">
                        <Array as="points">
                            <mxPoint x="624" y="358"/>
                            <mxPoint x="624" y="440"/>
                        </Array>
                    </mxGeometry>
                </mxCell>
                <mxCell id="13" value="update_inventory.py" style="rounded=1;whiteSpace=wrap;html=1;fontFamily=Courier New;strokeColor=#36393d;fillColor=#FFFFFF;" parent="1" vertex="1">
                    <mxGeometry x="440" y="330" width="160" height="60" as="geometry"/>
                </mxCell>
                <mxCell id="14" value="frontend nodes" style="rounded=0;whiteSpace=wrap;html=1;verticalAlign=middle;fontFamily=Courier New;" parent="1" vertex="1">
                    <mxGeometry x="250" y="566" width="100" height="40" as="geometry"/>
                </mxCell>
                <mxCell id="15" value="frontend nodes" style="rounded=0;whiteSpace=wrap;html=1;verticalAlign=middle;fontFamily=Courier New;" parent="1" vertex="1">
                    <mxGeometry x="248" y="568" width="100" height="40" as="geometry"/>
                </mxCell>
                <mxCell id="16" value="frontend&lt;br&gt;nodes" style="rounded=0;whiteSpace=wrap;html=1;verticalAlign=middle;fontFamily=Courier New;" parent="1" vertex="1">
                    <mxGeometry x="246" y="570" width="100" height="40" as="geometry"/>
                </mxCell>
                <mxCell id="17" value="co" style="rounded=0;whiteSpace=wrap;html=1;verticalAlign=middle;fontFamily=Courier New;" parent="1" vertex="1">
                    <mxGeometry x="367" y="566" width="100" height="40" as="geometry"/>
                </mxCell>
                <mxCell id="18" value="frontend nodes" style="rounded=0;whiteSpace=wrap;html=1;verticalAlign=middle;fontFamily=Courier New;" parent="1" vertex="1">
                    <mxGeometry x="365" y="568" width="100" height="40" as="geometry"/>
                </mxCell>
                <mxCell id="19" value="control&lt;br&gt;plane" style="rounded=0;whiteSpace=wrap;html=1;verticalAlign=middle;fontFamily=Courier New;" parent="1" vertex="1">
                    <mxGeometry x="363" y="570" width="100" height="40" as="geometry"/>
                </mxCell>
                <mxCell id="20" value="frontend nodes" style="rounded=0;whiteSpace=wrap;html=1;verticalAlign=middle;fontFamily=Courier New;" parent="1" vertex="1">
                    <mxGeometry x="482" y="566" width="100" height="40" as="geometry"/>
                </mxCell>
                <mxCell id="21" value="frontend nodes" style="rounded=0;whiteSpace=wrap;html=1;verticalAlign=middle;fontFamily=Courier New;" parent="1" vertex="1">
                    <mxGeometry x="480" y="568" width="100" height="40" as="geometry"/>
                </mxCell>
                <mxCell id="22" value="(meta-)&lt;br&gt;worker" style="rounded=0;whiteSpace=wrap;html=1;verticalAlign=middle;fontFamily=Courier New;" parent="1" vertex="1">
                    <mxGeometry x="478" y="570" width="100" height="40" as="geometry"/>
                </mxCell>
                <mxCell id="23" value="" style="rounded=0;whiteSpace=wrap;html=1;fontFamily=Courier New;fillColor=#dae8fc;verticalAlign=middle;strokeColor=#6c8ebf;fontSize=12;labelPosition=center;verticalLabelPosition=middle;align=center;spacing=0;spacingRight=5;" parent="1" vertex="1">
                    <mxGeometry x="237" y="511" width="313" height="40" as="geometry"/>
                </mxCell>
                <mxCell id="24" value="&lt;span style=&quot;font-family: &amp;quot;courier new&amp;quot;; font-size: 12px;&quot;&gt;Kubernetes&lt;br style=&quot;font-size: 12px;&quot;&gt;Cluster&lt;/span&gt;" style="aspect=fixed;html=1;points=[];align=left;image;fontSize=12;image=img/lib/mscae/Kubernetes.svg;labelBackgroundColor=none;labelPosition=right;verticalLabelPosition=middle;verticalAlign=middle;spacing=9;" parent="1" vertex="1">
                    <mxGeometry x="245" y="516.6" width="30" height="28.8" as="geometry"/>
                </mxCell>
                <mxCell id="25" value="admin.conf" style="rounded=0;whiteSpace=wrap;html=1;fontFamily=Courier New;verticalAlign=middle;" parent="1" vertex="1">
                    <mxGeometry x="688" y="507" width="140" height="30" as="geometry"/>
                </mxCell>
                <mxCell id="26" style="edgeStyle=none;html=1;entryX=1;entryY=0.5;entryDx=0;entryDy=0;rounded=0;fillColor=#f0a30a;strokeColor=#BD7000;exitX=0.003;exitY=0.43;exitDx=0;exitDy=0;exitPerimeter=0;" parent="1" source="11" target="7" edge="1">
                    <mxGeometry relative="1" as="geometry">
                        <mxPoint x="682" y="436" as="sourcePoint"/>
                        <Array as="points">
                            <mxPoint x="628" y="440"/>
                        </Array>
                    </mxGeometry>
                </mxCell>
                <mxCell id="27" style="edgeStyle=none;html=1;exitX=1;exitY=0.75;exitDx=0;exitDy=0;entryX=0;entryY=0.5;entryDx=0;entryDy=0;fontSize=12;startArrow=classic;startFill=1;fillColor=#e51400;strokeColor=#B20000;rounded=0;endArrow=none;endFill=0;" parent="1" source="7" target="25" edge="1">
                    <mxGeometry relative="1" as="geometry">
                        <Array as="points">
                            <mxPoint x="652" y="455"/>
                            <mxPoint x="652" y="522"/>
                        </Array>
                    </mxGeometry>
                </mxCell>
                <mxCell id="28" value="API" style="html=1;dashed=0;whitespace=wrap;fillColor=#2875E2;strokeColor=#ffffff;points=[[0.005,0.63,0],[0.1,0.2,0],[0.9,0.2,0],[0.5,0,0],[0.995,0.63,0],[0.72,0.99,0],[0.5,1,0],[0.28,0.99,0]];shape=mxgraph.kubernetes.icon;prIcon=api;fontFamily=Courier New;fontSize=12;align=left;labelPosition=right;verticalLabelPosition=middle;verticalAlign=middle;spacing=4;" parent="1" vertex="1">
                    <mxGeometry x="394" y="517" width="28" height="29" as="geometry"/>
                </mxCell>
                <mxCell id="29" value="&lt;font face=&quot;Courier New&quot;&gt;interact&lt;br&gt;&lt;/font&gt;" style="edgeStyle=none;rounded=0;html=1;exitX=0;exitY=0.5;exitDx=0;exitDy=0;labelBackgroundColor=none;fontSize=10;startArrow=classic;startFill=1;fillColor=#0050ef;strokeColor=#001DBC;align=left;labelPosition=right;verticalLabelPosition=middle;verticalAlign=middle;spacing=4;entryX=0.504;entryY=0.063;entryDx=0;entryDy=0;entryPerimeter=0;" parent="1" source="7" target="28" edge="1">
                    <mxGeometry x="0.6242" relative="1" as="geometry">
                        <Array as="points">
                            <mxPoint x="408" y="440"/>
                        </Array>
                        <mxPoint as="offset"/>
                        <mxPoint x="409" y="519" as="targetPoint"/>
                    </mxGeometry>
                </mxCell>
                <mxCell id="30" style="edgeStyle=none;html=1;exitX=1;exitY=0.5;exitDx=0;exitDy=0;entryX=0.469;entryY=0.016;entryDx=0;entryDy=0;entryPerimeter=0;fontFamily=Courier New;fontSize=10;endArrow=classic;endFill=1;rounded=0;startArrow=classic;startFill=1;fillColor=#008a00;strokeColor=#005700;" parent="1" source="31" target="23" edge="1">
                    <mxGeometry relative="1" as="geometry">
                        <Array as="points">
                            <mxPoint x="384" y="484"/>
                        </Array>
                    </mxGeometry>
                </mxCell>
                <mxCell id="31" value="" style="rounded=0;whiteSpace=wrap;html=1;fontFamily=Courier New;fillColor=#d5e8d4;verticalAlign=middle;strokeColor=#82b366;fontSize=12;labelPosition=center;verticalLabelPosition=middle;align=center;spacing=0;spacingRight=5;" parent="1" vertex="1">
                    <mxGeometry x="237" y="463" width="118" height="42" as="geometry"/>
                </mxCell>
                <mxCell id="32" value="" style="aspect=fixed;html=1;points=[];align=left;image;fontSize=12;image=img/lib/mscae/Kubernetes_Services.svg;fontFamily=Courier New;labelBackgroundColor=none;labelPosition=right;verticalLabelPosition=middle;verticalAlign=top;spacing=3;spacingBottom=0;" parent="1" vertex="1">
                    <mxGeometry x="242" y="467" width="45.95" height="34" as="geometry"/>
                </mxCell>
                <mxCell id="33" value="03_k8s_base" style="rounded=0;whiteSpace=wrap;html=1;dashed=1;dashPattern=1 1;fontFamily=Courier New;verticalAlign=top;fillColor=#E3E3E3;opacity=75;" parent="1" vertex="1">
                    <mxGeometry x="678" y="322" width="160" height="57" as="geometry"/>
                </mxCell>
                <mxCell id="34" style="edgeStyle=none;rounded=0;html=1;exitX=0;exitY=0.5;exitDx=0;exitDy=0;entryX=1.007;entryY=0.283;entryDx=0;entryDy=0;entryPerimeter=0;fontFamily=Courier New;fontSize=12;startArrow=none;startFill=0;endArrow=classic;endFill=1;fillColor=#e51400;strokeColor=#B20000;" parent="1" source="35" target="7" edge="1">
                    <mxGeometry relative="1" as="geometry">
                        <Array as="points">
                            <mxPoint x="652" y="360"/>
                            <mxPoint x="652" y="427"/>
                        </Array>
                    </mxGeometry>
                </mxCell>
                <mxCell id="35" value="hosts" style="rounded=0;whiteSpace=wrap;html=1;fontFamily=Courier New;verticalAlign=middle;" parent="1" vertex="1">
                    <mxGeometry x="723" y="345" width="70" height="30" as="geometry"/>
                </mxCell>
                <mxCell id="36" value="" style="shape=image;verticalLabelPosition=bottom;labelBackgroundColor=#ffffff;verticalAlign=top;aspect=fixed;imageAspect=0;image=data:image/svg+xml,PHN2ZyB4bWxucz0iaHR0cDovL3d3dy53My5vcmcvMjAwMC9zdmciIHhtbG5zOnhsaW5rPSJodHRwOi8vd3d3LnczLm9yZy8xOTk5L3hsaW5rIiB2aWV3Qm94PSIwLjQ5OTk5ODA5MjY1MTM2NzIgMC41IDY0IDQyLjMzMTAwNTA5NjQzNTU1IiBmaWxsPSIjZmZmIiBmaWxsLXJ1bGU9ImV2ZW5vZGQiIHN0cm9rZT0iIzAwMCIgc3Ryb2tlLWxpbmVjYXA9InJvdW5kIiBzdHJva2UtbGluZWpvaW49InJvdW5kIiB3aWR0aD0iNjQiIGhlaWdodD0iNDIuMzMxMDA1MDk2NDM1NTUiPjx1c2UgeGxpbms6aHJlZj0iI0EiIHg9Ii41IiB5PSIuNSIvPjxzeW1ib2wgaWQ9IkEiIG92ZXJmbG93PSJ2aXNpYmxlIj48cGF0aCBkPSJNMjMuODYyIDEyLjYzOFY4LjgyMmwxLjEzLS4wNDdjMTAuNDYtLjMzIDE3LjMxMyA4Ljk5OCAxNy4zMTMgOC45OThzLTcuMzk2IDEwLjI3LTE1LjMzNSAxMC4yN2E5LjczIDkuNzMgMCAwIDEtMy4wODYtLjQ5NXYtMTEuNmM0LjA3NS40OTUgNC45IDIuMjg1IDcuMzI2IDYuMzZsNS40NC00LjU3cy0zLjk4LTUuMjA2LTEwLjY3LTUuMjA2Yy0uNzA3LS4wMjQtMS40MTMuMDI0LTIuMTIuMDk0TTIzLjg2IDB2NS43bDEuMTMtLjA3YzE0LjUzNC0uNDk1IDI0LjAyNiAxMS45MiAyNC4wMjYgMTEuOTJzLTEwLjg4IDEzLjI0LTIyLjIgMTMuMjRjLTEgMC0xLjk1NS0uMDk0LTIuOTItLjI2djMuNTMzYy44LjA5NCAxLjYyNS4xNjUgMi40MjYuMTY1IDEwLjU1MyAwIDE4LjE4NS01LjM5NCAyNS41OC0xMS43NTQgMS4yMjUgMSA2LjI0MiAzLjM2OCA3LjI4IDQuNDA1LTcuMDIgNS45LTIzLjQgMTAuNjIzLTMyLjY3IDEwLjYyM2EyMy4yNCAyMy4yNCAwIDAgMS0yLjU5MS0uMTQxdjQuOTdINjRWLjAwMXptMCAyNy41MzZ2My4wMTVDMTQuMSAyOC44MjIgMTEuNCAxOC42NzggMTEuNCAxOC42NzhzNC42ODgtNS4xODIgMTIuNDYtNi4wM3YzLjI5OGgtLjAyNGMtNC4wNzUtLjQ5NS03LjI4IDMuMzItNy4yOCAzLjMyczEuODE0IDYuNDMgNy4zMDIgOC4zbS0xNy4zLTkuM3M1Ljc3LTguNTI3IDE3LjMzNy05LjQyMnYtMy4xQzExLjA3IDYuNzUgMCAxNy41ODYgMCAxNy41ODZzNi4yNjYgMTguMTM4IDIzLjg2MiAxOS43ODd2LTMuMjk4QzEwLjk1NCAzMi40NzMgNi41NSAxOC4yNDUgNi41NSAxOC4yNDV6IiBzdHJva2U9Im5vbmUiIGZpbGw9IiM3NmI5MDAiIGZpbGwtcnVsZT0ibm9uemVybyIvPjwvc3ltYm9sPjwvc3ZnPg==;" parent="1" vertex="1">
                    <mxGeometry x="300.29" y="469" width="45.71" height="30" as="geometry"/>
                </mxCell>
            </root>
        </mxGraphModel>
    </diagram>
</mxfile>